<svg width="175" height="52" viewBox="0 0 175 52" fill="none" xmlns="http://www.w3.org/2000/svg">
<g clip-path="url(#clip0_689_2268)">
<path d="M42.3028 0H45.5887V17.017H42.3028V0Z" fill="#3C5171"/>
<path d="M54.3801 0H64.4771C68.4158 0 71.0488 1.12564 71.0488 4.34805C71.0488 6.51104 70.0043 7.3056 69.1121 7.87946C70.2872 8.3871 71.7017 9.8438 71.7017 12.073C71.7017 15.2733 69.1774 17.017 65.1082 17.017H54.3801V0ZM64.6947 6.70968C66.849 6.70968 67.7847 6.17997 67.7847 4.74533C67.7847 3.28863 66.8273 2.75891 64.6947 2.75891H57.666V6.70968H64.6947ZM64.7817 14.2581C66.849 14.2581 68.4158 13.8387 68.4158 11.8302C68.4158 10.0424 66.9796 9.49066 64.7817 9.49066H57.6442V14.2581H64.7817Z" fill="#3C5171"/>
<path d="M79.7095 0H82.9954V17.017H79.7095V0Z" fill="#3C5171"/>
<path d="M90.3507 17.017V15.3616L102.058 2.8472H90.96V0H106.932V1.87606L95.5297 14.1477H107.193V16.9949H90.3507V17.017Z" fill="#3C5171"/>
<path d="M120.816 0H124.559L132.697 17.017H129.237L127.496 13.1104H117.834L116.05 17.017H112.568L120.816 0ZM126.191 10.2411L122.687 2.67063L119.184 10.2411H126.191Z" fill="#3C5171"/>
<path d="M0 22.623H9.2048C12.3819 22.623 15.2761 23.55 15.2761 27.1697C15.2761 30.8336 12.3819 31.7385 9.2048 31.7385H1.89319V38.5144H0V22.623ZM1.89319 30.039H8.7043C11.8596 30.039 13.4481 29.3548 13.4481 27.1918C13.4481 25.0067 11.8596 24.3225 8.7043 24.3225H1.89319V30.039Z" fill="#3C5171"/>
<path d="M22.2177 22.623H31.2702C33.7726 22.623 37.4502 23.1748 37.4502 27.0594C37.4502 30.3921 34.4037 31.3412 32.5105 31.4295L37.6896 38.5144H35.3394L30.2909 31.4736H24.1109V38.5144H22.2177V22.623ZM24.1109 29.7742H30.8349C33.5768 29.7742 35.6223 29.3769 35.6223 27.0373C35.6223 24.7198 33.5768 24.3225 30.8349 24.3225H24.1109V29.7742Z" fill="#3C5171"/>
<path d="M53.7926 22.2258C59.124 22.2258 62.9756 25.382 62.9756 30.6791C62.9756 36.3294 58.3188 38.9338 53.7926 38.9338C49.2664 38.9338 44.6096 36.3294 44.6096 30.6791C44.6096 25.382 48.483 22.2258 53.7926 22.2258ZM53.7926 37.2123C57.6225 37.2123 61.0389 35.1596 61.0389 30.326C61.0389 26.7725 58.3406 23.8591 53.7926 23.8591C49.2446 23.8591 46.5463 26.7946 46.5463 30.326C46.5463 35.1596 49.9409 37.2123 53.7926 37.2123Z" fill="#3C5171"/>
<path d="M70.2873 22.623H79.4921C82.6692 22.623 85.5634 23.55 85.5634 27.1697C85.5634 30.8336 82.6692 31.7385 79.4921 31.7385H72.2023V38.5144H70.2873V22.623ZM72.1805 30.039H78.9699C82.1252 30.039 83.7137 29.3548 83.7137 27.1918C83.7137 25.0067 82.1252 24.3225 78.9699 24.3225H72.1805V30.039Z" fill="#3C5171"/>
<path d="M92.505 22.623H106.475V24.3225H94.3982V29.3989H104.495V31.1205H94.3982V36.837H106.737V38.5365H92.505V22.623Z" fill="#3C5171"/>
<path d="M113.569 22.623H122.622C125.124 22.623 128.802 23.1748 128.802 27.0594C128.802 30.3921 125.755 31.3412 123.862 31.4295L129.041 38.5144H126.691L121.643 31.4736H115.462V38.5144H113.569V22.623ZM115.462 29.7742H122.187C124.928 29.7742 126.974 29.3769 126.974 27.0373C126.974 24.7198 124.928 24.3225 122.187 24.3225H115.462V29.7742Z" fill="#3C5171"/>
<path d="M142.185 24.3225H134.612V22.623H151.651V24.3225H144.078V38.5144H142.185V24.3225Z" fill="#3C5171"/>
<path d="M165.012 32.0916L156.917 22.623H159.398L165.948 30.3921L172.497 22.623H174.978L166.883 32.0916V38.5144H164.99V32.0916H165.012Z" fill="#3C5171"/>
<path d="M49.8103 50.0136C49.0922 51.4482 47.8301 52 46.1762 52C43.5432 52 42.3028 50.4109 42.3028 48.4024C42.3028 46.0408 43.8696 44.7827 46.1545 44.7827C47.6125 44.7827 49.0922 45.3566 49.7015 46.7471L48.9834 47.0781C48.5046 45.9525 47.4601 45.489 46.1545 45.489C44.2178 45.489 43.1297 46.5484 43.1297 48.5128C43.1297 50.1019 44.1743 51.2717 46.2415 51.2717C47.5907 51.2717 48.5264 50.6978 49.0704 49.6605L49.8103 50.0136Z" fill="#3C5171"/>
<path d="M56.4037 44.7827C58.7103 44.7827 60.3641 46.1511 60.3641 48.4245C60.3641 50.8744 58.3404 51.978 56.4037 51.978C54.4452 51.978 52.4432 50.8523 52.4432 48.4245C52.4432 46.1511 54.097 44.7827 56.4037 44.7827ZM56.4037 51.2717C58.0575 51.2717 59.5372 50.3888 59.5372 48.292C59.5372 46.7691 58.3621 45.489 56.4037 45.489C54.4452 45.489 53.2701 46.7471 53.2701 48.292C53.2701 50.3888 54.7281 51.2717 56.4037 51.2717Z" fill="#3C5171"/>
<path d="M63.5413 44.9595H64.3683V51.0953H69.7214V51.8236H63.5413V44.9595Z" fill="#3C5171"/>
<path d="M72.6372 44.9595H73.4641V51.0953H78.8173V51.8236H72.6372V44.9595Z" fill="#3C5171"/>
<path d="M81.7335 44.9595H87.783V45.6878H82.5604V47.8729H86.9343V48.6233H82.5604V51.0953H87.8918V51.8236H81.7335V44.9595Z" fill="#3C5171"/>
<path d="M97.8799 50.0136C97.1618 51.4482 95.8997 52 94.2459 52C91.6128 52 90.3725 50.4109 90.3725 48.4024C90.3725 46.0408 91.9392 44.7827 94.2241 44.7827C95.6821 44.7827 97.1618 45.3566 97.7711 46.7471L97.053 47.0781C96.5743 45.9525 95.5298 45.489 94.2241 45.489C92.2874 45.489 91.1994 46.5484 91.1994 48.5128C91.1994 50.1019 92.2439 51.2717 94.3112 51.2717C95.6603 51.2717 96.596 50.6978 97.1401 49.6605L97.8799 50.0136Z" fill="#3C5171"/>
<path d="M103.559 45.7098H100.295V44.9814H107.65V45.7098H104.386V51.8456H103.559V45.7098Z" fill="#3C5171"/>
<path d="M110.566 44.9595H111.393V51.8457H110.566V44.9595Z" fill="#3C5171"/>
<path d="M118.531 44.7827C120.837 44.7827 122.491 46.1511 122.491 48.4245C122.491 50.8744 120.467 51.978 118.531 51.978C116.572 51.978 114.57 50.8523 114.57 48.4245C114.57 46.1511 116.224 44.7827 118.531 44.7827ZM118.531 51.2717C120.185 51.2717 121.664 50.3888 121.664 48.292C121.664 46.7691 120.489 45.489 118.531 45.489C116.572 45.489 115.397 46.7471 115.397 48.292C115.397 50.3888 116.877 51.2717 118.531 51.2717Z" fill="#3C5171"/>
<path d="M125.668 44.9595H126.843L131.892 50.6097V44.9595H132.719V51.8457H131.87L126.452 45.7099V51.8457H125.668V44.9595Z" fill="#3C5171"/>
</g>
<defs>
<clipPath id="clip0_689_2268">
<rect width="175" height="52" fill="white"/>
</clipPath>
</defs>
</svg>
