<svg xmlns="http://www.w3.org/2000/svg" viewBox="0 0 125.59 19.15"><defs><style>.cls-1{fill:#10A4FF;fill-rule:evenodd;}</style></defs><title>Dataships</title><g id="Layer_2" data-name="Layer 2"><g id="Layer_1-2" data-name="Layer 1"><path class="cls-1" d="M34.3,6.58a3,3,0,0,1,3,3,3,3,0,1,1-6,0,2.87,2.87,0,0,1,2.95-3ZM37.48.09V5.84a4.31,4.31,0,0,0-3.41-1.66c-3,0-5.29,1.85-5.29,5.43A5.1,5.1,0,0,0,34.13,15a3.78,3.78,0,0,0,3.35-1.66l.17,1.43h2.4V.09Zm13,5.77a3.82,3.82,0,0,0-3.31-1.68,5.05,5.05,0,0,0-5.42,5.43c0,3.64,2.28,5.54,5.35,5.52a4,4,0,0,0,3.38-1.83l.12,1.51H53V4.43H50.52l-.08,1.43Zm-3.08.61c4,0,4,6.3,0,6.3a3,3,0,0,1-3.08-3.16,3,3,0,0,1,3.08-3.14Zm8.4-4.7V4.45H53.83V6.66h1.93v4.49c0,2.59,1.48,3.87,3.73,3.79a5.84,5.84,0,0,0,2.13-.44l-.72-2.19a2.91,2.91,0,0,1-1.24.31,1.29,1.29,0,0,1-1.35-1.47V6.66H61.2V4.45H58.33V1.5l-2.57.27ZM71.27,5.86A3.82,3.82,0,0,0,68,4.18a5,5,0,0,0-5.41,5.43c0,3.64,2.27,5.54,5.35,5.52a3.94,3.94,0,0,0,3.37-1.83l.12,1.51h2.43V4.43H71.35l-.08,1.43Zm-3.08.61c4,0,4,6.3,0,6.3a3,3,0,0,1-3.07-3.16A3,3,0,0,1,68.19,6.47Z"/><path class="cls-1" d="M84.47,5.5a5.58,5.58,0,0,0-4-1.37c-1.9,0-4.38.85-4.38,3.25s2.34,3.07,4.3,3.22c1.47.08,2.06.38,2.06,1.1S81.5,13,80.53,12.94A5.68,5.68,0,0,1,77,11.48l-1.26,1.84a6.07,6.07,0,0,0,4.8,1.85c3,0,4.47-1.58,4.47-3.41,0-2.76-2.49-3.2-4.45-3.33-1.32-.08-1.93-.46-1.93-1.14s.67-1,1.89-1A3.49,3.49,0,0,1,83,7.19L84.47,5.5ZM86.6.05V14.81h2.57V9.51a2.66,2.66,0,0,1,2.57-2.85c1.37,0,2.36.8,2.36,2.7v5.45h2.57V9.34c0-3.06-1.31-5.06-4.26-5.06a3.85,3.85,0,0,0-3.24,1.56V.05Zm14.81,4.34V14.81H98.84V4.39ZM98.61,1.5a1.52,1.52,0,0,0,3,0,1.52,1.52,0,0,0-3,0Zm10.87,11.08a2.88,2.88,0,0,1-3-2.95,3,3,0,0,1,5.9,0,2.89,2.89,0,0,1-3,2.95Zm-3.18,6.57V13.59a4.16,4.16,0,0,0,3.45,1.48c3.33,0,5.25-2.41,5.25-5.44a5.19,5.19,0,0,0-5.33-5.43,4.12,4.12,0,0,0-3.37,1.66l-.17-1.43h-2.4V19.15ZM125.11,5.5a5.62,5.62,0,0,0-4-1.37c-1.89,0-4.38.85-4.38,3.25S119,10.45,121,10.6c1.47.08,2.06.38,2.06,1.1s-.9,1.26-1.87,1.24a5.63,5.63,0,0,1-3.58-1.46l-1.27,1.84a6.07,6.07,0,0,0,4.8,1.85c3,0,4.47-1.58,4.47-3.41,0-2.76-2.49-3.2-4.44-3.33-1.33-.08-1.94-.46-1.94-1.14s.67-1,1.89-1a3.47,3.47,0,0,1,2.57.93Z"/><path class="cls-1" d="M17,0h1.69a1.14,1.14,0,0,1,1.13,1.13h0a1.14,1.14,0,0,1-1.13,1.13H17A1.14,1.14,0,0,1,15.9,1.13h0A1.14,1.14,0,0,1,17,0Z"/><path class="cls-1" d="M5.79,0H14A1.14,1.14,0,0,1,15.1,1.13h0A1.14,1.14,0,0,1,14,2.26H5.79A1.14,1.14,0,0,1,4.66,1.13h0A1.14,1.14,0,0,1,5.79,0Z"/><path class="cls-1" d="M21.69,13a4,4,0,0,1,1.12.58c-.51.9-3.43,2.18-4.38,2.49a18.2,18.2,0,0,1-15-1.52C1.55,13.39,1.8,12.74.67,12.74c-.29,0-.67.37-.67,1.06,0,1,1.41,1.85,2,2.27,6,4.28,15.79,4.12,21.83-.61,0-.22,0-.46,0-.74C23.76,13.7,22.81,13.19,21.69,13Z"/><path class="cls-1" d="M20.16,13a.89.89,0,0,1-.88-.89.87.87,0,0,1,.89-.87s3.87,0,4.76,3a12.3,12.3,0,0,1,.56,2.52,2.38,2.38,0,0,1-.11,1.13.87.87,0,0,1-1.13.52.88.88,0,0,1-.52-1.14s0-.08,0-.36a11,11,0,0,0-.48-2.16C22.73,13,20.16,13,20.16,13Z"/><path class="cls-1" d="M17,3.54h1.69a1.14,1.14,0,0,1,1.13,1.13h0A1.13,1.13,0,0,1,18.72,5.8H17A1.13,1.13,0,0,1,15.9,4.67h0A1.14,1.14,0,0,1,17,3.54Z"/><path class="cls-1" d="M5.79,3.54H14A1.14,1.14,0,0,1,15.1,4.67h0A1.13,1.13,0,0,1,14,5.8H5.79A1.13,1.13,0,0,1,4.66,4.67h0A1.14,1.14,0,0,1,5.79,3.54Z"/><path class="cls-1" d="M17,7.3h1.69a1.13,1.13,0,0,1,1.13,1.13h0a1.14,1.14,0,0,1-1.13,1.13H17A1.14,1.14,0,0,1,15.9,8.43h0A1.13,1.13,0,0,1,17,7.3Z"/><path class="cls-1" d="M5.79,7.3H14A1.13,1.13,0,0,1,15.1,8.43h0A1.14,1.14,0,0,1,14,9.56H5.79A1.14,1.14,0,0,1,4.66,8.43h0A1.13,1.13,0,0,1,5.79,7.3Z"/></g></g></svg>
